<svg width="212" height="37" viewBox="0 0 212 37" fill="none" xmlns="http://www.w3.org/2000/svg">
<path d="M30.2097 3.48901H1.81258C0.906291 3.48901 0.0755242 4.21586 0.0755242 5.16077V8.21354C0.0755242 9.15845 0.906291 9.95798 1.81258 9.95798H30.2097C31.1915 9.95798 31.9467 9.15845 32.0223 8.21354V5.23345C32.0223 4.21586 31.1915 3.48901 30.2097 3.48901ZM30.2097 20.6427H1.81258C1.35944 20.6427 0.906291 20.8607 0.52867 21.1515C0.226573 21.4422 0 21.8783 0 22.3871V25.4399C0 26.3848 0.830766 27.1843 1.73706 27.1843H30.1342C31.116 27.1843 31.8712 26.4575 31.9467 25.4399V22.3871C32.0223 21.3695 31.1915 20.6427 30.2097 20.6427ZM17.8237 29.1468H1.81258C1.35944 29.1468 0.906291 29.2922 0.604194 29.6556C0.302097 29.9464 0.0755242 30.3825 0.0755242 30.8913V33.9441C0.0755242 34.889 0.906291 35.6885 1.81258 35.6885H17.7482C18.73 35.6885 19.4853 34.889 19.4853 33.9441V30.8186C19.5608 29.9464 18.8055 29.1468 17.8237 29.1468ZM32.0223 12.0659H1.81258C1.35944 12.0659 0.906291 12.2112 0.604194 12.5746C0.302097 12.8654 0.0755242 13.3015 0.0755242 13.8103V16.8631C0.0755242 17.808 0.906291 18.6075 1.81258 18.6075H31.9467C32.9286 18.6075 33.6838 17.808 33.6838 16.8631V13.8103C33.7593 12.7927 33.0041 12.0659 32.0223 12.0659Z" fill="#00C3F7"/>
<path d="M65.0265 10.394C64.1203 9.52174 63.1384 8.86758 61.9301 8.35878C60.7972 7.84999 59.5133 7.63193 58.2294 7.63193C57.021 7.63193 55.8126 7.84999 54.6797 8.35878C53.9245 8.72221 53.2448 9.15832 52.7161 9.7398V9.231C52.7161 8.94026 52.5651 8.72221 52.414 8.50415C52.1874 8.2861 51.9609 8.14073 51.6588 8.14073H47.656C47.3539 8.14073 47.0518 8.2861 46.9007 8.50415C46.6742 8.72221 46.5986 8.94026 46.5986 9.231V34.6708C46.5986 34.9615 46.7497 35.1796 46.9007 35.3976C47.1273 35.6157 47.3539 35.6884 47.656 35.6884H51.6588C51.9609 35.6884 52.1874 35.6157 52.414 35.3976C52.6406 35.1796 52.7161 34.9615 52.7161 34.6708V25.9486C53.3203 26.5301 54 27.0388 54.8308 27.2569C55.8881 27.6203 57.021 27.8384 58.0783 27.8384C59.3622 27.8384 60.6461 27.6203 61.779 27.1115C62.9874 26.6754 64.0447 25.9486 64.8755 25.0763C65.7818 24.1314 66.537 23.0412 66.9902 21.8782C67.5188 20.5699 67.8209 19.1162 67.7454 17.7352C67.7454 16.2815 67.5188 14.9004 66.9902 13.5194C66.6881 12.4291 65.9328 11.3389 65.0265 10.394ZM61.4769 19.625C61.2503 20.1338 60.9482 20.6426 60.5706 21.0787C59.7399 21.9509 58.607 22.387 57.3986 22.387C56.7944 22.387 56.1902 22.2416 55.6615 22.0236C55.1329 21.8055 54.6042 21.4421 54.2266 21.0787C53.849 20.6426 53.4713 20.1338 53.2448 19.625C52.7916 18.462 52.7916 17.2264 53.2448 16.0634C53.4713 15.5546 53.7734 15.0458 54.2266 14.6097C54.6797 14.1736 55.1329 13.8828 55.6615 13.5921C56.1902 13.3741 56.7944 13.2287 57.3986 13.2287C58.0028 13.2287 58.607 13.3741 59.2112 13.5921C59.7399 13.8102 60.193 14.1736 60.6461 14.537C61.0238 14.9731 61.3259 15.4092 61.5524 15.9907C61.9301 17.1537 61.9301 18.462 61.4769 19.625ZM89.5719 8.21341H85.5691C85.267 8.21341 85.0405 8.35878 84.8139 8.50415C84.5873 8.72221 84.5118 9.01295 84.5118 9.30369V9.7398C83.9831 9.15832 83.3789 8.72221 82.6992 8.43147C81.6419 7.92267 80.4335 7.70462 79.2251 7.70462C76.6573 7.70462 74.165 8.72221 72.3524 10.4666C71.4461 11.4116 70.6909 12.5018 70.1622 13.6648C69.558 14.9731 69.3314 16.4268 69.3314 17.8805C69.3314 19.3342 69.558 20.7879 70.1622 22.0963C70.6909 23.2592 71.4461 24.3495 72.3524 25.2944C74.165 27.0388 76.5818 28.0564 79.1496 28.0564C80.358 28.0564 81.5664 27.8384 82.6237 27.3296C83.3034 26.9662 83.9831 26.53 84.4363 26.0213V26.5301C84.4363 26.8208 84.5873 27.0388 84.7384 27.2569C84.9649 27.4023 85.1915 27.5476 85.4936 27.5476H89.4964C89.7985 27.5476 90.0251 27.4023 90.2516 27.2569C90.4782 27.0388 90.5537 26.8208 90.5537 26.5301V9.30369C90.5537 9.01295 90.4782 8.79489 90.2516 8.57684C90.1006 8.2861 89.874 8.21341 89.5719 8.21341ZM84.1342 19.5523C83.9076 20.0611 83.6055 20.5699 83.2279 21.006C82.8503 21.3694 82.3216 21.7328 81.7929 22.0236C80.6601 22.5324 79.3762 22.5324 78.2433 22.0236C77.7146 21.8055 77.186 21.4421 76.8083 21.006C76.4307 20.5699 76.0531 20.0611 75.902 19.5523C75.4489 18.3893 75.4489 17.1537 75.902 15.9907C76.1286 15.4819 76.4307 14.9731 76.8083 14.537C77.186 14.1009 77.7146 13.8102 78.2433 13.5194C79.3762 13.0106 80.6601 13.0106 81.7929 13.5194C82.3216 13.7375 82.7747 14.1009 83.2279 14.4643C83.6055 14.9004 83.9076 15.3365 84.1342 15.918C84.6629 17.1537 84.6629 18.462 84.1342 19.5523ZM129.373 17.299C128.769 16.7903 128.165 16.4268 127.41 16.1361C126.654 15.8453 125.899 15.6273 125.068 15.4819L122.047 14.9004C121.292 14.7551 120.688 14.537 120.386 14.319C120.159 14.1736 120.008 13.8828 120.008 13.5921C120.008 13.3014 120.159 13.0106 120.612 12.7926C121.141 12.5018 121.745 12.3565 122.274 12.4291C123.029 12.4291 123.86 12.5745 124.54 12.8653C125.219 13.156 125.899 13.5194 126.503 13.8828C127.41 14.3916 128.165 14.319 128.693 13.7375L130.128 12.1384C130.431 11.8477 130.582 11.4842 130.582 11.1208C130.582 10.7574 130.355 10.3213 130.053 10.1032C129.449 9.59443 128.467 9.01295 127.107 8.50415C125.824 7.99536 124.162 7.70462 122.198 7.70462C120.99 7.70462 119.857 7.84999 118.724 8.21341C117.742 8.50415 116.836 8.94026 116.081 9.52174C115.326 10.0305 114.797 10.7574 114.344 11.5569C113.966 12.3565 113.74 13.156 113.74 14.0282C113.74 15.6273 114.268 16.9356 115.25 17.8805C116.232 18.8254 117.516 19.4796 119.177 19.7703L122.349 20.4245C123.029 20.5699 123.709 20.7152 124.389 21.006C124.766 21.1514 124.993 21.4421 124.993 21.8782C124.993 22.2416 124.842 22.5324 124.389 22.8231C124.011 23.1139 123.331 23.2592 122.501 23.2592C121.67 23.2592 120.763 23.1139 120.008 22.7504C119.253 22.387 118.573 21.9509 117.969 21.4421C117.667 21.224 117.365 21.0787 117.063 20.9333C116.685 20.8606 116.232 20.9333 115.779 21.2967L114.042 22.6051C113.589 22.9685 113.287 23.55 113.438 24.0588C113.513 24.6402 114.042 25.149 114.873 25.8032C117.063 27.2569 119.706 27.9838 122.349 27.9111C123.558 27.9111 124.842 27.7657 125.975 27.4023C127.032 27.1115 127.938 26.6754 128.769 26.0213C129.524 25.4398 130.204 24.7129 130.582 23.9134C131.035 23.1139 131.186 22.2416 131.186 21.2967C131.186 20.4972 131.035 19.6977 130.657 18.8981C130.355 18.3893 129.902 17.8078 129.373 17.299ZM146.744 21.9509C146.593 21.6602 146.215 21.4421 145.837 21.3694C145.46 21.3694 145.082 21.5148 144.78 21.6601C144.327 21.9509 143.723 22.1689 143.119 22.1689C142.968 22.1689 142.741 22.1689 142.514 22.0963C142.288 22.0963 142.137 21.9509 141.986 21.8055C141.835 21.6602 141.684 21.4421 141.533 21.224C141.382 20.9333 141.306 20.5699 141.382 20.2064V13.2287H146.593C146.895 13.2287 147.197 13.0833 147.423 12.8653C147.65 12.6472 147.801 12.4291 147.801 12.1384V9.15832C147.801 8.86758 147.65 8.57684 147.423 8.43147C147.197 8.21341 146.97 8.14073 146.668 8.14073H141.457V3.4162C141.457 3.12546 141.382 2.83472 141.155 2.68935C140.928 2.47129 140.702 2.39861 140.4 2.39861H136.397C136.095 2.39861 135.793 2.47129 135.642 2.68935C135.415 2.9074 135.34 3.19814 135.34 3.4162V8.21341H133.074C132.772 8.21341 132.47 8.35878 132.319 8.57684C132.092 8.79489 132.017 9.01295 132.017 9.30369V12.2838C132.017 12.5745 132.092 12.7926 132.319 13.0106C132.47 13.2287 132.772 13.3741 133.074 13.3741H135.34V21.6601C135.34 22.6777 135.491 23.6226 135.944 24.4949C136.321 25.2217 136.85 25.8759 137.454 26.3847C138.058 26.8935 138.814 27.2569 139.645 27.475C140.475 27.693 141.306 27.8384 142.137 27.8384C143.27 27.8384 144.327 27.693 145.384 27.3296C146.366 27.0388 147.272 26.4574 147.952 25.8032C148.405 25.3671 148.481 24.6402 148.103 24.1314L146.744 21.9509ZM168.646 8.21341H164.643C164.341 8.21341 164.114 8.35878 163.888 8.50415C163.661 8.72221 163.586 9.01295 163.586 9.30369V9.7398C163.057 9.15832 162.453 8.72221 161.773 8.43147C160.716 7.92267 159.507 7.70462 158.299 7.70462C155.731 7.70462 153.314 8.72221 151.502 10.4666C150.596 11.4116 149.84 12.5018 149.312 13.6648C148.707 14.9731 148.481 16.4268 148.481 17.8078C148.481 19.2615 148.707 20.6426 149.312 22.0236C149.84 23.1865 150.596 24.2768 151.502 25.2217C153.314 26.9662 155.731 27.9838 158.299 27.9838C159.507 27.9838 160.716 27.7657 161.773 27.2569C162.453 26.8935 163.133 26.4574 163.586 25.9486V26.4574C163.586 26.7481 163.661 26.9662 163.888 27.1842C164.114 27.4023 164.341 27.475 164.643 27.475H168.646C169.25 27.475 169.703 27.0388 169.703 26.4574V9.30369C169.703 9.01295 169.628 8.79489 169.401 8.57684C169.174 8.2861 168.948 8.21341 168.646 8.21341ZM163.208 19.5523C162.981 20.0611 162.679 20.5699 162.302 21.006C161.849 21.3694 161.395 21.7328 160.867 22.0236C160.338 22.2416 159.658 22.387 159.054 22.387C158.45 22.387 157.846 22.2416 157.317 22.0236C156.789 21.8055 156.26 21.4421 155.882 21.006C155.505 20.5699 155.127 20.0611 154.976 19.5523C154.523 18.3893 154.523 17.1537 154.976 15.9907C155.202 15.4819 155.505 14.9731 155.882 14.537C156.335 14.1009 156.789 13.8102 157.317 13.5194C157.846 13.3014 158.45 13.156 159.054 13.156C159.658 13.156 160.263 13.3014 160.867 13.5194C161.395 13.7375 161.849 14.1009 162.302 14.4643C162.679 14.9004 163.057 15.3365 163.208 15.918C163.737 17.1537 163.737 18.462 163.208 19.5523ZM190.548 21.6601L188.282 19.9884C187.829 19.625 187.451 19.5523 187.074 19.6977C186.772 19.843 186.47 20.0611 186.243 20.2791C185.714 20.8606 185.186 21.3694 184.506 21.8055C183.826 22.1689 183.071 22.387 182.24 22.3143C181.334 22.3143 180.503 22.0963 179.748 21.5875C178.993 21.0787 178.464 20.3518 178.162 19.5523C177.935 18.9708 177.86 18.3893 177.86 17.8078C177.86 17.2264 177.935 16.5722 178.162 15.9907C178.388 15.4819 178.691 14.9731 179.068 14.537C179.521 14.1009 179.974 13.8102 180.503 13.5921C181.032 13.3741 181.712 13.2287 182.316 13.2287C183.071 13.2287 183.902 13.3741 184.506 13.7375C185.186 14.1736 185.714 14.6824 186.243 15.2639C186.47 15.4819 186.772 15.7 187.074 15.8453C187.451 15.9907 187.829 15.918 188.282 15.5546L190.548 13.8828C190.85 13.6648 191.077 13.4467 191.152 13.156C191.303 12.7926 191.228 12.4291 191.076 12.1384C190.17 10.8301 188.962 9.7398 187.527 8.94026C186.016 8.14073 184.204 7.70462 182.165 7.70462C180.73 7.70462 179.295 7.99536 178.011 8.50415C176.727 9.01295 175.594 9.7398 174.612 10.6847C173.63 11.6296 172.875 12.7199 172.346 13.8828C171.289 16.4268 171.289 19.3342 172.346 21.8782C172.875 23.1139 173.63 24.2041 174.612 25.0763C176.651 26.9662 179.295 27.9838 182.165 27.9838C184.204 27.9838 186.016 27.5476 187.527 26.7481C188.962 25.9486 190.17 24.8583 191.076 23.55C191.303 23.2592 191.303 22.8958 191.152 22.5324C191.001 22.1689 190.774 21.8782 190.548 21.6601ZM211.77 25.6578L205.502 16.7176L210.864 9.88517C211.09 9.59443 211.166 9.15832 211.09 8.79489C211.015 8.50415 210.713 8.21341 210.109 8.21341H205.879C205.653 8.21341 205.426 8.2861 205.2 8.35878C204.897 8.50415 204.746 8.64952 204.595 8.94026L200.29 14.7551H199.233V1.01759C199.233 0.726851 199.158 0.508795 198.931 0.29074C198.704 0.0726851 198.478 0 198.176 0H194.173C193.871 0 193.644 0.0726851 193.418 0.29074C193.191 0.508795 193.116 0.726851 193.116 1.01759V26.312C193.116 26.6027 193.267 26.8935 193.418 27.0388C193.644 27.2569 193.871 27.3296 194.173 27.3296H198.176C198.478 27.3296 198.704 27.1842 198.931 27.0388C199.158 26.8208 199.233 26.6027 199.233 26.312V19.625H200.366L205.048 26.6027C205.351 27.1115 205.879 27.4023 206.408 27.4023H210.864C211.544 27.4023 211.846 27.1115 211.921 26.8208C212.072 26.4574 211.997 26.0213 211.77 25.6578ZM112.229 8.21341H107.773C107.471 8.21341 107.094 8.2861 106.867 8.57684C106.64 8.79489 106.489 9.01295 106.489 9.30369L103.166 21.0787H102.336L98.7859 9.231C98.7104 9.01295 98.6348 8.72221 98.4083 8.50415C98.1817 8.2861 97.8796 8.14073 97.5775 8.14073H92.9705C92.3663 8.14073 91.9887 8.35878 91.8377 8.72221C91.6866 9.08563 91.6866 9.44906 91.8377 9.7398L97.502 26.3847C97.5775 26.6027 97.7285 26.8935 97.9551 27.0388C98.1817 27.2569 98.4838 27.3296 98.7859 27.3296H101.203L100.976 27.8384L100.447 29.3648C100.296 29.8009 99.9943 30.237 99.5411 30.6004C99.1635 30.8912 98.7104 31.0365 98.1817 31.0365C97.8041 31.0365 97.3509 30.9638 96.9733 30.8185C96.5957 30.6731 96.2181 30.455 95.916 30.237C95.6139 30.0189 95.2362 29.9462 94.9341 29.9462H94.8586C94.4055 29.9462 94.0279 30.1643 93.8768 30.5277L92.4419 32.5629C91.8377 33.4351 92.2153 34.0166 92.5929 34.3074C93.3481 34.9615 94.2544 35.4703 95.2362 35.8337C96.2936 36.1972 97.4264 36.3425 98.6348 36.3425C100.674 36.3425 102.411 35.8337 103.695 34.7435C105.054 33.5805 106.036 32.0541 106.565 30.3824L113.135 9.81248C113.287 9.44906 113.287 9.08563 113.135 8.72221C113.135 8.43147 112.833 8.21341 112.229 8.21341Z" fill="white"/>
</svg>
